<mxfile host="app.diagrams.net" modified="2022-06-11T20:23:55.515Z" agent="5.0 (X11; Linux x86_64) AppleWebKit/537.36 (KHTML, like Gecko) Chrome/101.0.4951.64 Safari/537.36" etag="wPEo8fO2ElV7ORCtLA03" version="20.0.0" type="github">
  <diagram id="C5RBs43oDa-KdzZeNtuy" name="Page-1">
    <mxGraphModel dx="2905" dy="1145" grid="1" gridSize="10" guides="1" tooltips="1" connect="1" arrows="1" fold="1" page="1" pageScale="1" pageWidth="827" pageHeight="1169" math="0" shadow="0">
      <root>
        <mxCell id="WIyWlLk6GJQsqaUBKTNV-0" />
        <mxCell id="WIyWlLk6GJQsqaUBKTNV-1" parent="WIyWlLk6GJQsqaUBKTNV-0" />
        <mxCell id="5mYylGqCIjmpmp7e49YN-3" value="" style="edgeStyle=orthogonalEdgeStyle;rounded=0;orthogonalLoop=1;jettySize=auto;html=1;" edge="1" parent="WIyWlLk6GJQsqaUBKTNV-1" source="5mYylGqCIjmpmp7e49YN-0" target="5mYylGqCIjmpmp7e49YN-2">
          <mxGeometry relative="1" as="geometry" />
        </mxCell>
        <mxCell id="5mYylGqCIjmpmp7e49YN-0" value="&lt;pre&gt;Start trading manager&lt;/pre&gt;" style="rounded=1;whiteSpace=wrap;html=1;" vertex="1" parent="WIyWlLk6GJQsqaUBKTNV-1">
          <mxGeometry x="280" y="80" width="280" height="80" as="geometry" />
        </mxCell>
        <mxCell id="5mYylGqCIjmpmp7e49YN-5" value="" style="edgeStyle=orthogonalEdgeStyle;rounded=0;orthogonalLoop=1;jettySize=auto;html=1;" edge="1" parent="WIyWlLk6GJQsqaUBKTNV-1" source="5mYylGqCIjmpmp7e49YN-2" target="5mYylGqCIjmpmp7e49YN-4">
          <mxGeometry relative="1" as="geometry" />
        </mxCell>
        <mxCell id="5mYylGqCIjmpmp7e49YN-2" value="&lt;pre&gt;Setup connections to stock&lt;/pre&gt;&lt;pre&gt;exchange and messenger&lt;/pre&gt;" style="whiteSpace=wrap;html=1;rounded=1;" vertex="1" parent="WIyWlLk6GJQsqaUBKTNV-1">
          <mxGeometry x="280" y="240" width="280" height="80" as="geometry" />
        </mxCell>
        <mxCell id="5mYylGqCIjmpmp7e49YN-19" value="" style="edgeStyle=orthogonalEdgeStyle;rounded=0;orthogonalLoop=1;jettySize=auto;html=1;" edge="1" parent="WIyWlLk6GJQsqaUBKTNV-1" source="5mYylGqCIjmpmp7e49YN-4" target="5mYylGqCIjmpmp7e49YN-7">
          <mxGeometry relative="1" as="geometry">
            <Array as="points">
              <mxPoint x="630" y="480" />
              <mxPoint x="630" y="480" />
            </Array>
          </mxGeometry>
        </mxCell>
        <mxCell id="5mYylGqCIjmpmp7e49YN-47" value="&lt;pre&gt;&lt;font style=&quot;font-size: 12px;&quot;&gt;Yes&lt;/font&gt;&lt;/pre&gt;" style="edgeLabel;html=1;align=center;verticalAlign=middle;resizable=0;points=[];" vertex="1" connectable="0" parent="5mYylGqCIjmpmp7e49YN-19">
          <mxGeometry x="-0.1908" y="-2" relative="1" as="geometry">
            <mxPoint x="8" y="-22" as="offset" />
          </mxGeometry>
        </mxCell>
        <mxCell id="5mYylGqCIjmpmp7e49YN-32" value="" style="edgeStyle=orthogonalEdgeStyle;rounded=0;orthogonalLoop=1;jettySize=auto;html=1;" edge="1" parent="WIyWlLk6GJQsqaUBKTNV-1" source="5mYylGqCIjmpmp7e49YN-4" target="5mYylGqCIjmpmp7e49YN-31">
          <mxGeometry relative="1" as="geometry" />
        </mxCell>
        <mxCell id="5mYylGqCIjmpmp7e49YN-49" value="&lt;pre&gt;&lt;font style=&quot;font-size: 12px;&quot;&gt;No&lt;/font&gt;&lt;/pre&gt;" style="edgeLabel;html=1;align=center;verticalAlign=middle;resizable=0;points=[];" vertex="1" connectable="0" parent="5mYylGqCIjmpmp7e49YN-32">
          <mxGeometry x="-0.3318" y="-1" relative="1" as="geometry">
            <mxPoint x="11" y="13" as="offset" />
          </mxGeometry>
        </mxCell>
        <mxCell id="5mYylGqCIjmpmp7e49YN-4" value="&lt;pre&gt;task queue empty?&lt;/pre&gt;" style="rhombus;whiteSpace=wrap;html=1;rounded=1;" vertex="1" parent="WIyWlLk6GJQsqaUBKTNV-1">
          <mxGeometry x="320" y="400" width="200" height="160" as="geometry" />
        </mxCell>
        <mxCell id="5mYylGqCIjmpmp7e49YN-28" value="" style="edgeStyle=orthogonalEdgeStyle;rounded=0;orthogonalLoop=1;jettySize=auto;html=1;" edge="1" parent="WIyWlLk6GJQsqaUBKTNV-1" source="5mYylGqCIjmpmp7e49YN-7" target="5mYylGqCIjmpmp7e49YN-4">
          <mxGeometry relative="1" as="geometry">
            <mxPoint x="660" y="540" as="targetPoint" />
            <Array as="points">
              <mxPoint x="740" y="540" />
            </Array>
          </mxGeometry>
        </mxCell>
        <mxCell id="5mYylGqCIjmpmp7e49YN-7" value="&lt;pre&gt;Monitor shares for trends and&lt;br&gt;create buy/sell actions&lt;/pre&gt;" style="whiteSpace=wrap;html=1;rounded=1;" vertex="1" parent="WIyWlLk6GJQsqaUBKTNV-1">
          <mxGeometry x="600" y="440" width="280" height="80" as="geometry" />
        </mxCell>
        <mxCell id="5mYylGqCIjmpmp7e49YN-22" value="" style="edgeStyle=orthogonalEdgeStyle;rounded=0;orthogonalLoop=1;jettySize=auto;html=1;" edge="1" parent="WIyWlLk6GJQsqaUBKTNV-1" source="5mYylGqCIjmpmp7e49YN-4" target="5mYylGqCIjmpmp7e49YN-20">
          <mxGeometry relative="1" as="geometry">
            <mxPoint x="390" y="570" as="sourcePoint" />
            <Array as="points">
              <mxPoint x="260" y="480" />
              <mxPoint x="260" y="480" />
            </Array>
          </mxGeometry>
        </mxCell>
        <mxCell id="5mYylGqCIjmpmp7e49YN-48" value="&lt;pre&gt;&lt;font style=&quot;font-size: 12px;&quot;&gt;Yes&lt;/font&gt;&lt;/pre&gt;" style="edgeLabel;html=1;align=center;verticalAlign=middle;resizable=0;points=[];" vertex="1" connectable="0" parent="5mYylGqCIjmpmp7e49YN-22">
          <mxGeometry x="0.2408" y="2" relative="1" as="geometry">
            <mxPoint x="10" y="-22" as="offset" />
          </mxGeometry>
        </mxCell>
        <mxCell id="5mYylGqCIjmpmp7e49YN-30" value="" style="edgeStyle=orthogonalEdgeStyle;rounded=0;orthogonalLoop=1;jettySize=auto;html=1;" edge="1" parent="WIyWlLk6GJQsqaUBKTNV-1" source="5mYylGqCIjmpmp7e49YN-20" target="5mYylGqCIjmpmp7e49YN-4">
          <mxGeometry relative="1" as="geometry">
            <mxPoint x="260" y="540" as="targetPoint" />
            <Array as="points">
              <mxPoint x="100" y="540" />
            </Array>
          </mxGeometry>
        </mxCell>
        <mxCell id="5mYylGqCIjmpmp7e49YN-20" value="&lt;pre&gt;Monitor messenger for commands&lt;/pre&gt;" style="whiteSpace=wrap;html=1;rounded=1;" vertex="1" parent="WIyWlLk6GJQsqaUBKTNV-1">
          <mxGeometry x="-40" y="440" width="280" height="80" as="geometry" />
        </mxCell>
        <mxCell id="5mYylGqCIjmpmp7e49YN-34" value="" style="edgeStyle=orthogonalEdgeStyle;rounded=0;orthogonalLoop=1;jettySize=auto;html=1;" edge="1" parent="WIyWlLk6GJQsqaUBKTNV-1" source="5mYylGqCIjmpmp7e49YN-31" target="5mYylGqCIjmpmp7e49YN-33">
          <mxGeometry relative="1" as="geometry" />
        </mxCell>
        <mxCell id="5mYylGqCIjmpmp7e49YN-50" value="&lt;pre&gt;&lt;font style=&quot;font-size: 12px;&quot;&gt;Yes&lt;/font&gt;&lt;/pre&gt;" style="edgeLabel;html=1;align=center;verticalAlign=middle;resizable=0;points=[];" vertex="1" connectable="0" parent="5mYylGqCIjmpmp7e49YN-34">
          <mxGeometry x="0.2259" y="1" relative="1" as="geometry">
            <mxPoint x="-9" y="-19" as="offset" />
          </mxGeometry>
        </mxCell>
        <mxCell id="5mYylGqCIjmpmp7e49YN-38" value="" style="edgeStyle=orthogonalEdgeStyle;rounded=0;orthogonalLoop=1;jettySize=auto;html=1;" edge="1" parent="WIyWlLk6GJQsqaUBKTNV-1" source="5mYylGqCIjmpmp7e49YN-31" target="5mYylGqCIjmpmp7e49YN-37">
          <mxGeometry relative="1" as="geometry" />
        </mxCell>
        <mxCell id="5mYylGqCIjmpmp7e49YN-51" value="&lt;pre&gt;&lt;font style=&quot;font-size: 12px;&quot;&gt;No&lt;/font&gt;&lt;/pre&gt;" style="edgeLabel;html=1;align=center;verticalAlign=middle;resizable=0;points=[];" vertex="1" connectable="0" parent="5mYylGqCIjmpmp7e49YN-38">
          <mxGeometry x="-0.7666" relative="1" as="geometry">
            <mxPoint x="10" y="31" as="offset" />
          </mxGeometry>
        </mxCell>
        <mxCell id="5mYylGqCIjmpmp7e49YN-31" value="&lt;pre&gt;stop command issued?&lt;/pre&gt;" style="rhombus;whiteSpace=wrap;html=1;rounded=1;" vertex="1" parent="WIyWlLk6GJQsqaUBKTNV-1">
          <mxGeometry x="320" y="640" width="200" height="160" as="geometry" />
        </mxCell>
        <mxCell id="5mYylGqCIjmpmp7e49YN-33" value="&lt;pre&gt;End&lt;/pre&gt;" style="ellipse;whiteSpace=wrap;html=1;rounded=1;" vertex="1" parent="WIyWlLk6GJQsqaUBKTNV-1">
          <mxGeometry x="600" y="680" width="80" height="80" as="geometry" />
        </mxCell>
        <mxCell id="5mYylGqCIjmpmp7e49YN-40" value="" style="edgeStyle=orthogonalEdgeStyle;rounded=0;orthogonalLoop=1;jettySize=auto;html=1;" edge="1" parent="WIyWlLk6GJQsqaUBKTNV-1" source="5mYylGqCIjmpmp7e49YN-37" target="5mYylGqCIjmpmp7e49YN-2">
          <mxGeometry relative="1" as="geometry">
            <mxPoint x="200" y="270" as="targetPoint" />
            <Array as="points">
              <mxPoint x="-100" y="960" />
              <mxPoint x="-100" y="280" />
            </Array>
          </mxGeometry>
        </mxCell>
        <mxCell id="5mYylGqCIjmpmp7e49YN-52" value="&lt;pre&gt;&lt;font style=&quot;font-size: 12px;&quot;&gt;No&lt;/font&gt;&lt;/pre&gt;" style="edgeLabel;html=1;align=center;verticalAlign=middle;resizable=0;points=[];" vertex="1" connectable="0" parent="5mYylGqCIjmpmp7e49YN-40">
          <mxGeometry x="-0.8652" relative="1" as="geometry">
            <mxPoint x="80" y="-20" as="offset" />
          </mxGeometry>
        </mxCell>
        <mxCell id="5mYylGqCIjmpmp7e49YN-42" value="" style="edgeStyle=orthogonalEdgeStyle;rounded=0;orthogonalLoop=1;jettySize=auto;html=1;" edge="1" parent="WIyWlLk6GJQsqaUBKTNV-1" source="5mYylGqCIjmpmp7e49YN-37" target="5mYylGqCIjmpmp7e49YN-41">
          <mxGeometry relative="1" as="geometry" />
        </mxCell>
        <mxCell id="5mYylGqCIjmpmp7e49YN-53" value="&lt;pre&gt;&lt;font style=&quot;font-size: 12px;&quot;&gt;Yes&lt;/font&gt;&lt;/pre&gt;" style="edgeLabel;html=1;align=center;verticalAlign=middle;resizable=0;points=[];" vertex="1" connectable="0" parent="5mYylGqCIjmpmp7e49YN-42">
          <mxGeometry x="-0.2913" relative="1" as="geometry">
            <mxPoint x="20" y="12" as="offset" />
          </mxGeometry>
        </mxCell>
        <mxCell id="5mYylGqCIjmpmp7e49YN-37" value="&lt;pre&gt;is command valid?&lt;/pre&gt;" style="rhombus;whiteSpace=wrap;html=1;rounded=1;" vertex="1" parent="WIyWlLk6GJQsqaUBKTNV-1">
          <mxGeometry x="320" y="880" width="200" height="160" as="geometry" />
        </mxCell>
        <mxCell id="5mYylGqCIjmpmp7e49YN-46" value="" style="edgeStyle=orthogonalEdgeStyle;rounded=0;orthogonalLoop=1;jettySize=auto;html=1;" edge="1" parent="WIyWlLk6GJQsqaUBKTNV-1" source="5mYylGqCIjmpmp7e49YN-41" target="5mYylGqCIjmpmp7e49YN-2">
          <mxGeometry relative="1" as="geometry">
            <mxPoint x="1130" y="280" as="targetPoint" />
            <Array as="points">
              <mxPoint x="910" y="1160" />
              <mxPoint x="910" y="280" />
            </Array>
          </mxGeometry>
        </mxCell>
        <mxCell id="5mYylGqCIjmpmp7e49YN-41" value="&lt;pre&gt;Execute command&lt;/pre&gt;" style="whiteSpace=wrap;html=1;rounded=1;" vertex="1" parent="WIyWlLk6GJQsqaUBKTNV-1">
          <mxGeometry x="280" y="1120" width="280" height="80" as="geometry" />
        </mxCell>
      </root>
    </mxGraphModel>
  </diagram>
</mxfile>
